<?xml version="1.0" encoding="UTF-8"?><svg id="Layer_1" xmlns="http://www.w3.org/2000/svg" viewBox="0 0 8192 7680"><g id="back"><path id="sphere" d="M6865.31,3839.5c0-1528.34-1241.46-2769.81-2769.81-2769.81S1325.69,2311.16,1325.69,3839.5s1241.46,2769.81,2769.81,2769.81h0c1528.34,0,2769.81-1241.46,2769.81-2769.81Z" style="fill:#f2f2f2; stroke:#ddd; stroke-miterlimit:10; stroke-width:3px;"/><path d="M1758.88,3838.17c0,655.33,307.79,1239.54,786.53,1615.79,66.08,51.94,160.31,48.05,221.66-9.39,429.06-401.71,697.41-973.05,697.41-1606.4s-268.35-1204.69-697.41-1606.4c-61.36-57.44-155.58-61.33-221.66-9.39-478.74,376.25-786.53,960.46-786.53,1615.79Z" style="fill:#e5e5e5; stroke:#ddd; stroke-miterlimit:10; stroke-width:3px;"/></g><g id="sectors"><path id="_208" d="M4525.82,2970.71c-207.59,49.84-415.16,99.67-622.74,149.51-38.11-154.24-88.35-304.95-150.14-450.74,158.5-65.65,552.97-229.04,591.7-245.08,24.64,58.38,47.8,117.52,69.46,177.36h0c43.9,121.41,81.15,244.57,111.73,368.96h-.01Z" style="fill:#fff; stroke:#ddd; stroke-miterlimit:10; stroke-width:9px;"/><path id="_209" d="M4344.64,2424.4c-72.76-170.09-165.49-353.48-264.69-510.29-145.43,89.12-400.64,245.5-546.07,334.61,84.15,134.44,157.36,275.15,219.07,420.77h0c158.5-65.65,433.19-179.44,591.69-245.09h0Z" style="fill:#fff; stroke:#ddd; stroke-miterlimit:10; stroke-width:9px;"/><path id="_203" d="M4079.93,5765.17c-145.43-89.12-400.61-245.51-546.04-334.63,84.13-134.43,157.34-275.13,219.04-420.74h0c158.5,65.66,433.17,179.39,591.67,245.05,0,0-165.46,353.52-264.67,510.32h0Z" style="fill:#fff; stroke:#ddd; stroke-miterlimit:10; stroke-width:9px;"/><path id="_204" d="M4344.6,5254.85c-38.71-16.04-433.14-179.42-591.65-245.07,61.78-145.78,112.02-296.48,150.13-450.7,207.57,49.83,415.13,99.66,622.7,149.5-30.57,124.33-67.81,247.45-111.69,368.81h0c-21.66,59.88-44.83,119.05-69.49,177.46h0Z" style="fill:#fff; stroke:#ddd; stroke-miterlimit:10; stroke-width:9px;"/><path id="_202" d="M3533.76,5430.47s.07.05.12.07c135.57,83.08,499.61,306.17,546.05,334.63-101.98,163.57-216.7,318.6-342.97,463.68-31.8-27.15-477.68-407.98-668.82-571.22,15.19-17.34,30.15-34.88,44.9-52.59,47.95-57.62,93.55-117.18,136.68-178.54h0c94.68,1.32,189.36,2.65,284.04,3.98h0Z" style="fill:#fff; stroke:#ddd; stroke-miterlimit:10; stroke-width:9px;"/><path id="_205" d="M3903.08,4559.08c207.57,49.83,415.15,99.67,622.72,149.5,50.62-205.84,82.98-415.04,97.07-625.17-54.3-4.27-479.96-37.77-638.47-50.25-8.94,138.44-27.51,276.4-55.69,412.89h0c-7.82,37.87-16.36,75.56-25.62,113.03h0Z" style="fill:#fff; stroke:#ddd; stroke-miterlimit:10; stroke-width:9px;"/><path id="_206" d="M4489.86,3606.43c-158.53,12.48-346.93,27.23-505.44,39.7,8.33,128.88,8.33,258.16-.02,387.04,158.51,12.48,479.94,37.76,638.47,50.24,11.37-196.11,8.26-257.68-.71-487.53l-132.3,10.55h0Z" style="fill:#fff; stroke:#ddd; stroke-miterlimit:10; stroke-width:9px;"/><path id="_210" d="M3113.05,2074.17c-14.73-17.7-29.68-35.21-44.85-52.54,191.13-163.25,636.98-544.03,668.77-571.19,126.27,145.08,240.98,300.1,342.98,463.67-46.45,28.46-546.13,334.67-546.19,334.7-94.66,1.33-189.31,2.66-283.96,3.99h0c-43.15-61.41-88.77-120.99-136.74-178.63h-.01Z" style="fill:#fff; stroke:#ddd; stroke-miterlimit:10; stroke-width:9px;"/><path id="_207" d="M3984.42,3646.13c158.51-12.47,583.44-45.97,637.74-50.25-14.1-210.13-45.74-419.33-96.35-625.18-207.57,49.83-415.14,99.67-622.7,149.5,9.25,37.46,17.8,75.12,25.61,112.97h0c28.19,136.51,46.76,274.5,55.71,412.95h-.01Z" style="fill:#fff; stroke:#ddd; stroke-miterlimit:10; stroke-width:9px;"/><path id="_409" d="M5286.64,2181.91c34.48-14.28,584.25-242.01,587.71-243.44-211.42-197-455.65-359.72-723.64-479.19-58.27,35.71-116.53,71.42-174.8,107.12,20.63,33.91,40.8,68.13,60.52,102.63h0c94.11,164.69,177.78,335.97,250.19,512.88h.02Z" style="fill:#fff; stroke:#ddd; stroke-miterlimit:10; stroke-width:9px;"/><path id="_403" d="M4975.85,6112.84c58.27,35.71,116.55,71.43,174.84,107.15,267.98-119.46,512.21-282.18,723.64-479.17-3.46-1.43-553.26-229.18-587.75-243.46-72.42,176.85-156.05,348.07-250.14,512.72h0c-19.74,34.55-39.95,68.8-60.6,102.76h.01Z" style="fill:#fff; stroke:#ddd; stroke-miterlimit:10; stroke-width:9px;"/><path id="_302" d="M4430.58,6424.9c-150.97-109.68-301.93-219.36-452.89-329.05,107.7-130.76,206.03-269.24,294.17-414.41,234.61,143.77,644.21,394.78,878.83,538.55-105.47,57.12-177.69,72.59-323.11,120.12h0c-128.51,38.04-261.12,66.58-397,84.79Z" style="fill:#fff; stroke:#ddd; stroke-miterlimit:10; stroke-width:9px;"/><path id="_303" d="M4975.71,6112.76c-234.62-143.77-469.24-287.55-703.85-431.32,96.59-159.1,180.92-326.23,251.9-500.05,254.22,105.3,508.45,210.61,762.68,315.91-72.41,176.85-156.04,348.06-250.14,512.71h0c-19.74,34.55-39.94,68.8-60.59,102.75h0Z" style="fill:#fff; stroke:#ddd; stroke-miterlimit:10; stroke-width:9px;"/><path id="_304" d="M4889.01,4694.57c-12.93,55.22-27.11,110.15-42.54,164.75-75.95,20.35-151.89,40.7-227.85,61.05-13.04,40.79-26.83,81.4-41.39,121.81-16.88,46.86-34.71,93.27-53.48,139.21,254.22,105.3,508.45,210.61,762.68,315.91,23.71-57.9,46.22-116.4,67.49-175.48,56.99-158.26,104.57-318.99,142.74-481.38h0c-202.56-48.63-405.12-97.26-607.66-145.88h0Z" style="fill:#fff; stroke:#ddd; stroke-miterlimit:10; stroke-width:9px;"/><path id="_305" d="M5496.67,4840.44c-202.56-48.63-405.12-97.26-607.66-145.88,32.38-138.24,56.9-278.33,73.41-419.58,6.5-55.69,11.76-111.48,15.76-167.35,207.66,16.34,415.33,32.69,623.01,49.03-10.51,144.74-28.24,289.08-53.18,432.48h0c-14.63,84.13-31.74,167.93-51.34,251.3h0Z" style="fill:#fff; stroke:#ddd; stroke-miterlimit:10; stroke-width:9px;"/><path id="_306" d="M5601.18,4156.67c-207.68-16.34-415.35-32.69-623.01-49.03,12.79-178.43,12.79-357.55,0-535.97,207.67-16.35,415.35-32.69,623.03-49.04,7.67,105.48,11.49,211.17,11.49,316.86h0c0,105.8-3.84,211.59-11.52,317.17h0Z" style="fill:#fff; stroke:#ddd; stroke-miterlimit:10; stroke-width:9px;"/><path id="_307" d="M5601.21,3522.63c-207.68,16.35-415.36,32.69-623.03,49.04-3.99-55.87-9.25-111.67-15.76-167.35-16.51-141.27-41.03-281.35-73.41-419.58,202.57-48.63,405.14-97.27,607.72-145.9,19.57,83.27,36.66,166.98,51.27,251h0c24.96,143.5,42.69,287.95,53.2,432.79h.01Z" style="fill:#fff; stroke:#ddd; stroke-miterlimit:10; stroke-width:9px;"/><path id="_308" d="M5496.73,2838.83c-202.58,48.64-405.16,97.27-607.72,145.9-12.93-55.23-27.11-110.16-42.53-164.76-75.94-20.35-151.87-40.69-227.81-61.04-13.06-40.84-26.87-81.5-41.44-121.97-16.85-46.81-34.67-93.18-53.41-139.09,254.24-105.31,508.48-210.62,762.73-315.93,23.67,57.81,46.14,116.22,67.38,175.2h0c57.02,158.36,104.64,319.19,142.8,481.68h0Z" style="fill:#fff; stroke:#ddd; stroke-miterlimit:10; stroke-width:9px;"/><path id="_309" d="M5286.55,2181.95c-254.26,105.32-508.49,210.62-762.73,315.93-70.98-173.83-155.31-340.97-251.89-500.07,234.64-143.79,469.29-287.58,703.92-431.37,20.61,33.88,40.76,68.05,60.45,102.52h0c94.13,164.73,177.81,336.03,250.25,512.98h0Z" style="fill:#fff; stroke:#ddd; stroke-miterlimit:10; stroke-width:9px;"/><path id="_310" d="M4430.61,1254.38c-150.95,109.67-301.9,219.34-452.84,329.01,107.69,130.76,206.02,269.25,294.15,414.42,234.64-143.79,644.16-394.74,878.79-538.53-130.35-55.93-201.76-83.24-322.88-120.04h0c-128.58-38.08-261.26-66.65-397.23-84.87h0Z" style="fill:#fff; stroke:#ddd; stroke-miterlimit:10; stroke-width:9px;"/><path id="_408" d="M5286.62,2181.9c23.69,57.85,46.17,116.3,67.42,175.32,3.53,9.81,7.06,19.62,10.6,29.43,35.17,99.44,66.58,200.12,94.17,301.91,2.8,10.55,5.6,21.11,8.4,31.66,10.44,39.43,20.31,78.96,29.61,118.59,301.23-72.31,602.47-144.64,903.7-216.96-83.27-156.03-182.04-302.69-294.27-437.97-70.43-87.61-154.08-177.66-231.9-245.41,0,0-395.29,163.72-587.73,243.43Z" style="fill:#fff; stroke:#ddd; stroke-miterlimit:10; stroke-width:9px;"/><path id="_405" d="M6400.41,5057.41c133.85-250.71,227.69-525.62,273.08-816.35-30.41-2.39-60.81-4.78-91.21-7.18-327-25.74-654-51.47-980.98-77.21-10.51,144.77-28.24,289.12-53.18,432.54-14.63,84.11-31.74,167.9-51.33,251.25h0c301.2,72.31,602.4,144.62,903.62,216.94h0Z" style="fill:#fff; stroke:#ddd; stroke-miterlimit:10; stroke-width:9px;"/><path id="_404" d="M5286.57,5497.34c23.71-57.89,46.21-116.38,67.48-175.44,3.56-9.8,7.11-19.6,10.59-29.43,35.18-99.44,66.58-200.11,94.18-301.9,2.86-10.54,5.62-21.11,8.4-31.66,10.42-39.37,20.28-78.85,29.58-118.43,301.19,72.32,602.4,144.63,903.61,216.94-83.29,156.03-182.08,302.68-294.32,437.95-105.11,114.41-204.72,222.02-231.76,245.45l-10.34-4.3s-384.96-159.46-577.42-239.18h0Z" style="fill:#fff; stroke:#ddd; stroke-miterlimit:10; stroke-width:9px;"/><path id="_406" d="M5610.31,3996.21c-1.39,37.29-3.33,74.29-5.71,111.52-1,16.32-2.1,32.63-3.29,48.94,339.15,26.69,1072.18,84.39,1072.18,84.39,31.65-361.76,31.65-560.39.05-802.83,0,0-733.06,57.7-1072.22,84.39,1.19,16.25,2.28,32.51,3.28,48.77,2.38,37.23,4.32,74.23,5.71,111.52h0c3.89,104.43,3.89,208.87,0,313.29h0Z" style="fill:#fff; stroke:#ddd; stroke-miterlimit:10; stroke-width:9px;"/><path id="_407" d="M5496.83,2838.8c301.23-72.32,602.46-144.64,903.7-216.96,133.83,250.73,227.65,525.66,273.01,816.39-18.25,1.44-733.07,57.7-1072.22,84.39-10.5-144.81-28.24-289.24-53.19-432.71h0c-14.62-84.07-31.72-167.8-51.3-251.11h0Z" style="fill:#fff; stroke:#ddd; stroke-miterlimit:10; stroke-width:9px;"/></g></svg>